<?xml version="1.0" encoding="utf-8"?>
<!-- Generator: Adobe Illustrator 22.1.0, SVG Export Plug-In . SVG Version: 6.00 Build 0)  -->
<svg version="1.1" id="图层_1" xmlns="http://www.w3.org/2000/svg" xmlns:xlink="http://www.w3.org/1999/xlink" x="0px" y="0px"
	 viewBox="0 0 200 200" style="enable-background:new 0 0 200 200;" xml:space="preserve">
<path d="M99.9,0.1C44.7,0.1,0,44.8,0,100c0,22,7.2,42.2,19.2,58.7l7.5-7.8c-10.1-14.4-16-32-16-50.9c0-49.2,39.9-89.2,89.2-89.2
	c49.2,0,89.2,39.9,89.2,89.2c0,49.2-39.9,89.2-89.2,89.2c-18.8,0-36.2-5.8-50.5-15.7l-6.7,8.3c16.2,11.4,35.9,18.1,57.2,18.1
	c55.1,0,99.9-44.7,99.9-99.9C199.7,44.8,155,0.1,99.9,0.1z"/>
<path d="M96.3,49.9v46.4H49.9V107h46.4v46.4H107V107h46.4V96.3H107V49.9H96.3z"/>
</svg>
