<?xml version="1.0" encoding="utf-8"?>
<!-- Generator: Adobe Illustrator 22.1.0, SVG Export Plug-In . SVG Version: 6.00 Build 0)  -->
<svg version="1.1" id="图层_1" xmlns="http://www.w3.org/2000/svg" xmlns:xlink="http://www.w3.org/1999/xlink" x="0px" y="0px"
	 viewBox="0 0 200 200" style="enable-background:new 0 0 200 200;" xml:space="preserve">
<style type="text/css">
	.st0{fill:none;stroke:#000000;stroke-width:10;}
</style>
<title>analysis</title>
<g>
	<title>Layer 1</title>
	<path id="svg_11" class="st0" d="M31.9,177.6c4.9,2.1,11.6,6.9,16.7,5.1c3.4-1.1,5.4-7.6,7.5-11c15.9-25.5,33.1-54.5,45.7-79.4
		c0-1.1,0.7-2-0.4-3.5c7-9.3,11.8-19.6,19.5-30c2.4-3.3,4.9-7.9,8.3-9.2l6.3-2.1c8-1.7,13.8-1.6,19.4,2.8c2.8,2.2,4.1,5.9,6.9,8.1
		c1.9,1.5,8.9,5.2,11.5,4.7c2-0.4,3.7-2.1,5.1-4.2l5-7.5c1.4-2.1,2.2-4.2,1.5-5.8c-0.8-2.1-8.5-4.9-11.1-5.3
		c-3.8-0.7-8.2,0.5-12.1-0.2c-7.6-1.4-10.8-5.4-13.5-11.8c-18.6-8.9-43.7-14.8-72.9-7.3c-7.9,2-15.5,3.6-20.7,7.7
		c-1,2.4,1,2.9,3.2,2.9c-1.7,1.3-4.4,2-2.9,4.9c17.8-6.7,52.4-9,54.8,4.7c0.5,3-2.8,7.2-4.9,10.7c-6.5,10.9-14.4,19.8-20.1,29.7
		c-2.1,0.1-2.6,1-3.8,1.7c-18.6,22.2-38.9,49.8-56.4,74.6c-2.3,3.3-7.8,8.2-7.2,11.1C18.6,173.4,27.1,175.5,31.9,177.6L31.9,177.6
		L31.9,177.6z"/>
</g>
</svg>
