<svg width="200.00000000000003" height="200.00000000000003" xmlns="http://www.w3.org/2000/svg"><title>analysis</title><g><title>Layer 1</title><path stroke="#000000" id="svg_11" d="m31.94855,177.56657c4.89525,2.05969 11.57576,6.86867 16.74906,5.10921c3.39336,-1.13882 5.37901,-7.58713 7.48729,-10.98141c15.87004,-25.51524 33.11786,-54.53598 45.67212,-79.36389c0,-1.10769 0.72095,-1.96407 -0.35027,-3.46995c7.02264,-9.32883 11.78973,-19.57848 19.46239,-29.95938c2.42998,-3.2987 4.90211,-7.87637 8.31047,-9.19543l6.29486,-2.1442c8.00244,-1.67938 13.84757,-1.62156 19.427,2.75817c2.82913,2.2332 4.1307,5.9167 6.86727,8.13436c1.85062,1.51474 8.90184,5.24047 11.52393,4.66439c2.03739,-0.4493 3.71643,-2.12421 5.14465,-4.24628l4.97296,-7.49817c1.39407,-2.13306 2.18728,-4.18617 1.53723,-5.82549c-0.83675,-2.11085 -8.51769,-4.89797 -11.08931,-5.33394c-3.77359,-0.6606 -8.24634,0.47159 -12.08946,-0.24021c-7.55275,-1.4169 -10.81132,-5.37619 -13.45512,-11.7778c-18.63385,-8.93956 -43.72054,-14.75172 -72.92987,-7.25352c-7.92339,2.03526 -15.51845,3.57894 -20.72712,7.71399c-1.04392,2.40222 1.02079,2.8805 3.18626,2.85153c-1.69396,1.25901 -4.43045,1.98858 -2.85096,4.94469c17.82697,-6.68187 52.44529,-8.9907 54.79614,4.68667c0.51379,3.04509 -2.82238,7.23793 -4.87346,10.70119c-6.46655,10.92588 -14.36816,19.78981 -20.09878,29.68583c-2.1301,0.09788 -2.61526,1.04764 -3.75186,1.67268c-18.6052,22.1565 -38.94797,49.80264 -56.44517,74.60163c-2.33042,3.29865 -7.84576,8.17439 -7.16027,11.11265c1.02895,4.49538 9.4961,6.58851 14.39,8.65265l0.00001,0z" stroke-width="11" fill="none"/></g></svg>