<?xml version="1.0" encoding="utf-8"?>
<!-- Generator: Adobe Illustrator 22.1.0, SVG Export Plug-In . SVG Version: 6.00 Build 0)  -->
<svg version="1.1" id="图层_1" xmlns="http://www.w3.org/2000/svg" xmlns:xlink="http://www.w3.org/1999/xlink" x="0px" y="0px"
	 viewBox="0 0 200 200" style="enable-background:new 0 0 200 200;" xml:space="preserve">
<path d="M164.1,56.3h-29.7V45.3c0-7.8-6.3-14.1-14.1-14.1H79.7c-7.8,0-14.1,6.3-14.1,14.1v10.9H35.9c-2.5,0-4.7,2.2-4.7,4.7
	s2.2,4.7,4.7,4.7h128.1c2.5,0,4.7-2.2,4.7-4.7S166.6,56.3,164.1,56.3z M75,56.3V45.3c0-2.5,2.2-4.7,4.7-4.7h40.6
	c2.5,0,4.7,2.2,4.7,4.7v10.9H75z M148.1,75c-2.5,0-4.7,2.2-4.7,4.7v70.9c0,4.7-3.8,8.8-8.8,8.8H65c-4.7,0-8.8-3.8-8.8-8.8V79.7
	c0-2.5-2.2-4.7-4.7-4.7s-4.7,2.2-4.7,4.7v70.9c0,10,8.1,18.1,18.1,18.1h70c10,0,18.1-8.1,18.1-18.1V79.7
	C152.8,77.2,150.6,75,148.1,75L148.1,75z"/>
<path d="M86.9,145.3V79.7c0-2.5-2.2-4.7-4.7-4.7c-2.5,0-4.7,2.2-4.7,4.7v65.6c0,2.5,2.2,4.7,4.7,4.7C84.7,150,86.9,147.8,86.9,145.3
	z M122.5,145.3V79.7c0-2.5-2.2-4.7-4.7-4.7c-2.5,0-4.7,2.2-4.7,4.7v65.6c0,2.5,2.2,4.7,4.7,4.7C120.3,150,122.5,147.8,122.5,145.3z"
	/>
</svg>
