<?xml version="1.0" encoding="utf-8"?>
<!-- Generator: Adobe Illustrator 22.1.0, SVG Export Plug-In . SVG Version: 6.00 Build 0)  -->
<svg version="1.1" id="图层_1" xmlns="http://www.w3.org/2000/svg" xmlns:xlink="http://www.w3.org/1999/xlink" x="0px" y="0px"
	 viewBox="0 0 200 200" style="enable-background:new 0 0 200 200;" xml:space="preserve">
<style type="text/css">
	.st0{fill:#231815;}
</style>
<path class="st0" d="M98,149.6c0.7,0.7,1.7,1.1,2.7,1.1c0,0,0,0,0,0c0.1,0,0.1,0,0.2,0c0.1,0,0.3,0,0.4,0c0.9-0.1,1.7-0.4,2.3-1.1
	l65.4-64.5c1.5-1.5,1.5-3.9,0-5.4c-1.5-1.5-3.9-1.5-5.4,0L104.7,138V9.8c0-2.1-1.7-3.8-3.8-3.8c-2.1,0-3.8,1.7-3.8,3.8v128.3
	L37.2,79c-1.5-1.5-3.9-1.4-5.4,0c-1.5,1.5-1.4,3.9,0,5.4L98,149.6z"/>
<path class="st0" d="M169.4,138.9c-2.1,0-3.8,1.7-3.8,3.8V175c0,2.5-2.1,4.6-4.6,4.6H40.1c-2.5,0-4.6-2.1-4.6-4.6v-32.3
	c0-2.1-1.7-3.8-3.8-3.8s-3.8,1.7-3.8,3.8V175c0,6.7,5.5,12.2,12.2,12.2H161c6.7,0,12.2-5.5,12.2-12.2v-32.3
	C173.2,140.6,171.5,138.9,169.4,138.9z"/>
</svg>
