<?xml version="1.0" encoding="utf-8"?>
<!-- Generator: Adobe Illustrator 22.1.0, SVG Export Plug-In . SVG Version: 6.00 Build 0)  -->
<svg version="1.1" id="图层_1" xmlns="http://www.w3.org/2000/svg" xmlns:xlink="http://www.w3.org/1999/xlink" x="0px" y="0px"
	 viewBox="0 0 200 200" style="enable-background:new 0 0 200 200;" xml:space="preserve">
<style type="text/css">
	.st0{fill:#444444;}
</style>
<path class="st0" d="M111,118.5l0.8,20.2h34.3c11.8-1.7,21.1-12.6,21.1-25.3c0-14.3-11-25.3-25.3-25.3c-3.4,0-5.9,0.8-8.4,1.7v-1.7
	c0-18.5-15.2-33.7-33.8-33.7S66,69.7,66,88.2c0,3.4,0.8,5.9,0.8,9.3c-1.7-0.8-3.4-0.8-5.1-0.8c-11.8,0-21.1,9.3-21.1,21.1
	s9.3,21.1,21.1,21.1h34.8l0.3-19.9l-10.6,10.6l-11.8-11.8L104,88.2l29.5,29.5l-11.8,11.8L111,118.5L111,118.5z M111.8,138.8l0.2,9.8
	H96.3l0.3-9.8h-8.2v9.8H64.6c-19.8,0-33.6-14.7-33.6-33.3c0-12,8-23.5,25.3-26.8c0.5-26.8,19.4-43.9,44-43.9
	c20.6,0,40,17.2,41.5,35.9c21.3-2,34.8,12.9,35,31.3c0.2,19.3-13.2,34.5-33,36.7H120v-9.7H111.8L111.8,138.8z"/>
</svg>
